<svg width="60" height="34" viewBox="0 0 60 34" fill="none" xmlns="http://www.w3.org/2000/svg">
<path opacity="0.9" d="M15.2224 27.4414L19.1947 5.19633H21.8378L17.8502 27.4414H15.2224ZM21.0586 27.4414L25.0463 5.19633H27.6894L23.7018 27.4414H21.0586ZM29.8742 14.0271H13.9695V11.5521H29.8742V14.0271ZM28.713 21.1773H12.8237V18.7023H28.713V21.1773ZM42.4023 5.13522V27.4414H38.3536V9.85618L32.9909 11.6285V8.35892L41.944 5.13522H42.4023Z" fill="#050038"/>
<path d="M8.64626 3.93898C9.58747 4.01124 10.5287 4.08224 11.5573 4.16084C10.7521 5.47932 9.35654 6.098 8.20811 5.65935C7.53153 5.40072 7.10836 5.51989 6.79005 6.16012C6.67895 6.38452 6.52416 6.58736 6.4218 6.74964C7.40421 6.60384 8.41533 6.45298 9.48012 6.29324C9.19801 7.49762 7.81115 8.541 6.6415 8.55621C5.77269 8.5672 5.17933 8.98641 4.86143 9.81385C4.78903 10.0027 4.72162 10.1942 4.64672 10.397C5.16477 10.1168 5.64037 9.83667 6.13594 9.59706C6.61653 9.36379 7.1171 9.17235 7.63514 8.95049C7.51281 10.553 6.04981 12.1377 4.58681 12.3748C4.34214 12.4141 3.99137 12.627 3.92895 12.8337C3.74296 13.4486 3.67555 14.1015 3.56445 14.7277C4.447 13.9012 5.30333 13.0987 6.16091 12.2962C6.23455 12.3291 6.30696 12.3633 6.38061 12.3963C6.30196 12.8882 6.26077 13.3902 6.13844 13.8707C5.81638 15.1474 5.18349 16.2022 3.95642 16.7841C3.51951 16.9907 3.35848 17.3406 3.39094 17.8097C3.43088 18.3777 3.46459 18.9469 3.4958 19.421C4.18361 18.3561 4.91011 17.2341 5.63537 16.1109C5.69779 16.1388 5.76145 16.1667 5.82387 16.1933C6.14343 17.4243 5.95244 18.6185 5.3982 19.7469C5.16227 20.2261 4.80775 20.6622 4.43951 21.0514C4.0413 21.4723 3.83908 21.8717 4.07126 22.4599C4.28347 22.9936 4.42328 23.5578 4.56683 24.0193C4.95131 22.7616 5.33953 21.4901 5.729 20.2172C5.79765 20.2096 5.86506 20.2007 5.93372 20.1931C6.05979 20.4746 6.22332 20.7446 6.30446 21.0387C6.71764 22.5372 6.69767 24.0028 5.86631 25.3682C5.56921 25.8563 5.53052 26.2899 5.89377 26.7589C6.15841 27.1012 6.38061 27.4778 6.56161 27.7491C6.63401 26.4445 6.70891 25.0969 6.7838 23.7492C6.84872 23.7378 6.91238 23.7264 6.97729 23.7163C7.62016 24.3223 7.99215 25.1019 8.20811 25.9577C8.44404 26.8933 8.44528 27.8327 8.12572 28.7595C7.97343 29.2019 8.05082 29.5747 8.45527 29.8688C8.89217 30.1857 9.30286 30.5407 9.68859 30.85C9.40148 29.5937 9.11437 28.336 8.78857 26.9098C9.84837 27.3383 10.5062 27.9506 10.8607 28.7886C11.1391 29.4453 11.2864 30.1895 11.3401 30.9071C11.3875 31.5321 11.5136 31.9479 12.1739 32.0899C12.6133 32.185 13.034 32.3612 13.5196 32.6731C13.3561 32.7479 13.1975 32.8709 13.029 32.8836C12.853 32.8962 12.657 32.8303 12.4898 32.753C11.8082 32.436 11.3264 32.455 10.7122 33.1054C9.86834 33.9992 8.6525 33.8699 7.53528 33.5935C7.03097 33.4693 6.55911 33.2018 5.94121 32.9431C7.06592 31.8516 8.23682 31.4269 9.7123 31.5131C9.15182 31.0668 8.69994 30.6738 8.21061 30.3391C8.07829 30.2491 7.76372 30.2478 7.65137 30.3467C7.12084 30.8095 6.50419 30.8399 5.88254 30.7448C4.64922 30.5559 3.62187 29.9778 2.78552 28.8939C4.10871 28.1788 5.38072 28.2029 6.75884 28.833C6.31445 28.1852 5.96742 27.6096 5.543 27.1012C5.3957 26.925 5.05741 26.8743 4.79652 26.8413C4.39706 26.7906 3.94768 26.9136 3.59191 26.7716C2.19133 26.2151 1.38118 25.0931 0.829438 23.6034C2.28495 23.5768 3.4571 23.9597 4.49069 25.1146C4.14366 24.141 3.87278 23.3131 3.54073 22.5106C3.46708 22.3319 3.19121 22.219 2.98774 22.1201C2.60326 21.9338 2.12017 21.8729 1.82683 21.5965C0.811961 20.633 0.245236 19.3982 0.00431462 18.0087C-0.0119132 17.9124 0.0217907 17.8072 0.0367703 17.6563C1.41863 18.0759 2.33613 18.9963 3.09509 20.3313C3.04891 19.4654 3.04766 18.7567 2.95404 18.062C2.92532 17.8477 2.66193 17.6462 2.47344 17.4775C2.25998 17.2861 1.94292 17.186 1.78313 16.9628C0.789492 15.5683 0.536088 13.9836 0.639697 12.2759C1.6246 12.6385 2.26248 13.5576 3.06389 15.7166C3.11756 15.2374 3.16 14.8101 3.21493 14.3854C3.28983 13.8162 3.18871 13.3522 2.77054 12.8882C2.42601 12.5053 2.15762 11.9577 2.07399 11.4467C1.86303 10.1574 1.86552 8.85541 2.38232 7.52932C3.43837 8.62721 3.8216 9.88738 3.86155 11.3364C4.05753 10.7697 4.26724 10.2081 4.43701 9.63382C4.4782 9.49437 4.43327 9.26617 4.33964 9.15841C3.46084 8.14546 3.68179 6.9791 3.92271 5.84571C4.08749 5.06983 4.40705 4.32692 4.75033 3.59287C5.64661 4.8746 5.59293 6.23872 5.36449 7.76639C5.78392 7.10968 6.15466 6.56961 6.47548 6.00165C6.5666 5.84191 6.60155 5.54398 6.51542 5.40199C5.86007 4.31931 6.1996 3.2734 6.62028 2.25284C6.93859 1.47949 7.41669 0.799966 8.11199 0.258626C8.48523 1.51246 8.41408 2.33271 7.79617 4.24958C8.59009 3.72092 8.93586 3.1669 9.27915 2.28453C9.44517 1.85602 9.76348 1.39962 10.1392 1.16255C10.8657 0.704883 11.6821 0.394278 12.5097 0C12.516 1.34891 11.3176 2.8208 10.0456 3.09084C9.4227 3.22268 8.93087 3.49145 8.64376 3.93898H8.64626Z" fill="#F5A041"/>
<path d="M51.2174 3.93898C50.2762 4.01124 49.335 4.08224 48.3064 4.16084C49.1115 5.47932 50.5071 6.098 51.6555 5.65935C52.3321 5.40072 52.7553 5.51989 53.0736 6.16012C53.1847 6.38452 53.3395 6.58736 53.4418 6.74964C52.4594 6.60384 51.4483 6.45298 50.3835 6.29324C50.6656 7.49762 52.0525 8.541 53.2221 8.55621C54.091 8.5672 54.6843 8.98641 55.0022 9.81385C55.0746 10.0027 55.142 10.1942 55.2169 10.397C54.6989 10.1168 54.2233 9.83667 53.7277 9.59706C53.2471 9.36379 52.7465 9.17235 52.2285 8.95049C52.3508 10.553 53.8138 12.1377 55.2768 12.3748C55.5215 12.4141 55.8723 12.627 55.9347 12.8337C56.1207 13.4486 56.1881 14.1015 56.2992 14.7277C55.4167 13.9012 54.5603 13.0987 53.7027 12.2962C53.6291 12.3291 53.5567 12.3633 53.483 12.3963C53.5617 12.8882 53.6029 13.3902 53.7252 13.8707C54.0473 15.1474 54.6802 16.2022 55.9072 16.7841C56.3441 16.9907 56.5052 17.3406 56.4727 17.8097C56.4328 18.3777 56.3991 18.9469 56.3679 19.421C55.68 18.3561 54.9535 17.2341 54.2283 16.1109C54.1659 16.1388 54.1022 16.1667 54.0398 16.1933C53.7202 17.4243 53.9112 18.6185 54.4655 19.7469C54.7014 20.2261 55.0559 20.6622 55.4241 21.0514C55.8223 21.4723 56.0246 21.8717 55.7924 22.4599C55.5802 22.9936 55.4404 23.5578 55.2968 24.0193C54.9123 22.7616 54.5241 21.4901 54.1347 20.2172C54.066 20.2096 53.9986 20.2007 53.9299 20.1931C53.8039 20.4746 53.6403 20.7446 53.5592 21.0387C53.146 22.5372 53.166 24.0028 53.9973 25.3682C54.2944 25.8563 54.3331 26.2899 53.9699 26.7589C53.7052 27.1012 53.483 27.4778 53.302 27.7491C53.2296 26.4445 53.1547 25.0969 53.0798 23.7492C53.0149 23.7378 52.9513 23.7264 52.8864 23.7163C52.2435 24.3223 51.8715 25.1019 51.6555 25.9577C51.4196 26.8933 51.4184 27.8327 51.7379 28.7595C51.8902 29.2019 51.8128 29.5747 51.4084 29.8688C50.9715 30.1857 50.5608 30.5407 50.1751 30.85C50.4622 29.5937 50.7493 28.336 51.0751 26.9098C50.0153 27.3383 49.3574 27.9506 49.0029 28.7886C48.7245 29.4453 48.5772 30.1895 48.5236 30.9071C48.4761 31.5321 48.3501 31.9479 47.6897 32.0899C47.2503 32.185 46.8296 32.3612 46.344 32.6731C46.5076 32.7479 46.6661 32.8709 46.8346 32.8836C47.0106 32.8962 47.2066 32.8303 47.3739 32.753C48.0555 32.436 48.5373 32.455 49.1515 33.1054C49.9953 33.9992 51.2111 33.8699 52.3284 33.5935C52.8327 33.4693 53.3045 33.2018 53.9224 32.9431C52.7977 31.8516 51.6268 31.4269 50.1513 31.5131C50.7118 31.0668 51.1637 30.6738 51.653 30.3391C51.7854 30.2491 52.0999 30.2478 52.2123 30.3467C52.7428 30.8095 53.3595 30.8399 53.9811 30.7448C55.2144 30.5559 56.2418 29.9778 57.0781 28.8939C55.7549 28.1788 54.4829 28.2029 53.1048 28.833C53.5492 28.1852 53.8962 27.6096 54.3206 27.1012C54.4679 26.925 54.8062 26.8743 55.0671 26.8413C55.4666 26.7906 55.916 26.9136 56.2717 26.7716C57.6723 26.2151 58.4825 25.0931 59.0342 23.6034C57.5787 23.5768 56.4065 23.9597 55.373 25.1146C55.72 24.141 55.9909 23.3131 56.3229 22.5106C56.3966 22.3319 56.6724 22.219 56.8759 22.1201C57.2604 21.9338 57.7435 21.8729 58.0368 21.5965C59.0517 20.633 59.6184 19.3982 59.8593 18.0087C59.8756 17.9124 59.8419 17.8072 59.8269 17.6563C58.445 18.0759 57.5275 18.9963 56.7686 20.3313C56.8147 19.4654 56.816 18.7567 56.9096 18.062C56.9383 17.8477 57.2017 17.6462 57.3902 17.4775C57.6037 17.2861 57.9207 17.186 58.0805 16.9628C59.0742 15.5683 59.3276 13.9836 59.224 12.2759C58.239 12.6385 57.6012 13.5576 56.7998 15.7166C56.7461 15.2374 56.7036 14.8101 56.6487 14.3854C56.5738 13.8162 56.6749 13.3522 57.0931 12.8882C57.4376 12.5053 57.706 11.9577 57.7897 11.4467C58.0006 10.1574 57.9981 8.85541 57.4813 7.52932C56.4253 8.62721 56.042 9.88738 56.0021 11.3364C55.8061 10.7697 55.5964 10.2081 55.4266 9.63382C55.3854 9.49437 55.4304 9.26617 55.524 9.15841C56.4028 8.14546 56.1819 6.9791 55.9409 5.84571C55.7762 5.06983 55.4566 4.32692 55.1133 3.59287C54.217 4.8746 54.2707 6.23872 54.4992 7.76639C54.0797 7.10968 53.709 6.56961 53.3882 6.00165C53.297 5.84191 53.2621 5.54398 53.3482 5.40199C54.0036 4.31931 53.664 3.2734 53.2434 2.25284C52.9251 1.47949 52.447 0.799966 51.7517 0.258626C51.3784 1.51246 51.4496 2.33271 52.0675 4.24958C51.2736 3.72092 50.9278 3.1669 50.5845 2.28453C50.4185 1.85602 50.1002 1.39962 49.7244 1.16255C48.9979 0.704883 48.1815 0.394278 47.3539 0C47.3477 1.34891 48.546 2.8208 49.818 3.09084C50.4409 3.22268 50.9328 3.49145 51.2199 3.93898H51.2174Z" fill="#F5A041"/>
</svg>
