<svg width="100" height="100" viewBox="0 0 100 100" fill="none" xmlns="http://www.w3.org/2000/svg">
<path fill-rule="evenodd" clip-rule="evenodd" d="M50 91.6648C73.0141 91.6648 91.6648 73.0141 91.6648 50C91.6648 26.9859 73.0141 8.33521 50 8.33521C26.9859 8.33521 8.33521 26.9859 8.33521 50C8.33521 73.0141 26.9859 91.6648 50 91.6648ZM50 100C77.6127 100 100 77.6127 100 50C100 22.3873 77.6127 0 50 0C22.3873 0 0 22.3873 0 50C0 77.6127 22.3873 100 50 100Z" fill="white"/>
<path d="M68.469 53.6804L43.2268 68.9593C41.3562 70.0927 38.9629 68.7502 38.9518 66.5606L38.8363 36.1958C38.8253 34.0061 41.213 32.6472 43.0946 33.764L68.4523 48.8499C70.279 49.9337 70.2901 52.58 68.469 53.6804Z" fill="white"/>
</svg>
