<svg width="44" height="37" fill="none" xmlns="http://www.w3.org/2000/svg"><mask id="a" maskUnits="userSpaceOnUse" x="0" y="-.808" width="44" height="38" fill="#000"><path fill="#fff" d="M0-.808h44v38H0z"/><path d="m27.835 28.906 1.287 6.207c1.226 0 2.443-.004 3.662.004.26.001.587-.038.761.092.242.18.5.5.502.76 0 .218-.324.49-.57.638-.18.109-.466.073-.704.073-7.173.003-14.345.003-21.519.003-.974 0-1.37-.242-1.346-.813.022-.54.405-.757 1.343-.758h3.62l1.297-6.208h-.77c-3.28 0-6.561.004-9.84 0-2.625-.003-4.552-1.846-4.555-4.364-.005-6.599-.002-13.197-.001-19.796C1.003 2.081 2.752.321 5.52.198c.088-.003.174-.003.262-.003 10.802 0 21.605.002 32.407-.003 1.446 0 2.7.392 3.685 1.461.743.807 1.12 1.744 1.12 2.812.006 6.724.01 13.449 0 20.173-.003 2.395-1.961 4.259-4.457 4.265-3.301.009-6.604.003-9.906.003h-.796zM2.659 19.589v1.523h38.687c.019-.183.045-.324.045-.466.003-5.317-.001-10.634.004-15.95.001-1.808-1.345-2.95-3.156-2.946-10.825.032-21.65.015-32.475.02-.347 0-.706.008-1.036.095-1.375.364-2.116 1.372-2.119 2.89-.009 4.244-.004 8.49-.001 12.735 0 .182.026.362.042.575m-.045 4.691v1.387c.004 2.18 1.11 3.236 3.386 3.236H38c.196 0 .393.006.59-.005 1.3-.073 2.443-.877 2.67-2.04.163-.83.118-1.697.168-2.58H2.607l-.002.002zm13.932 12.33h10.921l-1.273-6.144h-8.374l-1.274 6.145z"/></mask><path d="m27.835 28.906 1.287 6.207c1.226 0 2.443-.004 3.662.004.26.001.587-.038.761.092.242.18.5.5.502.76 0 .218-.324.49-.57.638-.18.109-.466.073-.704.073-7.173.003-14.345.003-21.519.003-.974 0-1.37-.242-1.346-.813.022-.54.405-.757 1.343-.758h3.62l1.297-6.208h-.77c-3.28 0-6.561.004-9.84 0-2.625-.003-4.552-1.846-4.555-4.364-.005-6.599-.002-13.197-.001-19.796C1.003 2.081 2.752.321 5.52.198c.088-.003.174-.003.262-.003 10.802 0 21.605.002 32.407-.003 1.446 0 2.7.392 3.685 1.461.743.807 1.12 1.744 1.12 2.812.006 6.724.01 13.449 0 20.173-.003 2.395-1.961 4.259-4.457 4.265-3.301.009-6.604.003-9.906.003h-.796zM2.659 19.589v1.523h38.687c.019-.183.045-.324.045-.466.003-5.317-.001-10.634.004-15.95.001-1.808-1.345-2.95-3.156-2.946-10.825.032-21.65.015-32.475.02-.347 0-.706.008-1.036.095-1.375.364-2.116 1.372-2.119 2.89-.009 4.244-.004 8.49-.001 12.735 0 .182.026.362.042.575m-.045 4.691v1.387c.004 2.18 1.11 3.236 3.386 3.236H38c.196 0 .393.006.59-.005 1.3-.073 2.443-.877 2.67-2.04.163-.83.118-1.697.168-2.58H2.607l-.002.002zm13.932 12.33h10.921l-1.273-6.144h-8.374l-1.274 6.145z" fill="#100F36"/><path d="M27.835 28.906v-.178h-.219l.044.214.175-.036zm1.287 6.207-.174.036.03.142h.144v-.178zm3.662.004v.178-.178zm.761.092-.106.143.106-.143zm.502.76h.178-.178zm-.57.638.092.153-.092-.153zm-.704.073v-.178.178zm-22.865-.81.178.007-.178-.007zm1.343-.758v-.178.178zm3.62 0v.178h.144l.03-.142-.175-.036zm1.297-6.208.174.037.045-.215h-.219v.178zm-10.61 0v-.179.178zM1.003 24.54H.825h.178zM1.002 4.744H.824h.178zM5.52.198 5.512.021l.008.177zM38.19.192V.014v.178zm3.684 1.461.13-.12-.13.12zm1.12 2.812h.178-.177zm0 20.173h.178-.177zm-4.457 4.265v-.178.178zm-35.878-7.79h-.178v.177h.178v-.178zm38.687 0v.177h.161l.017-.16-.178-.018zm.045-.467h-.178.178zm.004-15.95h.178-.178zM38.239 1.75v-.178.178zm-32.475.02v.177-.178zm-1.036.095-.045-.172.045.172zM2.61 4.755h.178-.178zM2.608 17.49h.178-.178zm-.003 5.266-.123-.128-.055.052v.076h.178zm0 1.387h-.178.178zm35.986 3.23-.01-.177.01.178zm2.67-2.039-.175-.034.175.034zm.168-2.58.178.01.01-.187h-.188v.178zm-38.822 0v-.177h-.072l-.052.05.124.128zm13.93 12.333-.174-.036-.045.214h.219v-.178zm10.921 0v.178h.219l-.044-.214-.175.036zm-1.273-6.145.175-.036-.03-.142h-.145v.178zm-8.374 0v-.178h-.145l-.03.142.175.036zm9.85 0 1.287 6.207.348-.072c-.435-2.104-.855-4.127-1.287-6.207l-.349.072zm1.461 6.35c1.226 0 2.443-.005 3.661.003l.002-.356c-1.22-.008-2.438-.004-3.663-.004v.356zm3.661.003c.151 0 .27-.009.405-.002.13.006.21.028.251.059l.213-.286c-.133-.098-.305-.122-.447-.129-.137-.007-.31.003-.42.002l-.002.356zm.656.057c.106.079.218.19.301.309.087.123.128.232.129.31l.356-.003c-.001-.183-.09-.365-.193-.512a1.764 1.764 0 0 0-.38-.39l-.213.286zm.43.617a.178.178 0 0 1-.03.081.749.749 0 0 1-.112.14c-.099.1-.229.196-.342.265l.184.305c.132-.08.287-.194.412-.32a1.1 1.1 0 0 0 .165-.21.521.521 0 0 0 .079-.26h-.356zm-.484.486a.528.528 0 0 1-.245.052c-.123.004-.227-.005-.367-.005v.356c.098 0 .256.01.38.004a.867.867 0 0 0 .416-.102l-.184-.305zm-.612.047c-7.173.003-14.345.003-21.519.003v.356c7.174 0 14.346 0 21.519-.003v-.356zm-21.519.003c-.48 0-.781-.062-.955-.167a.411.411 0 0 1-.167-.177.596.596 0 0 1-.046-.284l-.356-.015a.948.948 0 0 0 .08.452.766.766 0 0 0 .305.329c.261.158.646.218 1.139.218v-.356zm-1.168-.628a.59.59 0 0 1 .064-.266.433.433 0 0 1 .173-.167c.174-.098.465-.153.929-.154v-.356c-.476 0-.846.054-1.104.2a.787.787 0 0 0-.308.303.94.94 0 0 0-.11.425l.355.015zm1.165-.587H14.87v-.356H11.251v.356zm3.794-.142 1.297-6.207-.348-.073-1.298 6.208.349.072zm1.123-6.422h-.77v.356h.77v-.356zm-.77 0c-3.28 0-6.561.004-9.84 0v.355c3.279.005 6.56.001 9.84.001v-.356zm-9.84 0c-2.534-.003-4.374-1.774-4.377-4.186H.825c.003 2.623 2.017 4.538 4.733 4.541v-.356zM1.18 24.54C1.176 17.94 1.18 11.343 1.18 4.745H.824C.822 11.342.82 17.94.825 24.54h.356zM1.18 4.745c0-1.292.424-2.35 1.17-3.101C3.096.893 4.18.436 5.528.376L5.512.021c-1.42.062-2.594.546-3.415 1.372-.82.826-1.273 1.98-1.273 3.351h.356zM5.527.376a5.91 5.91 0 0 1 .255-.003V.017c-.087 0-.178 0-.27.004l.015.355zm.255-.003C16.584.373 27.387.375 38.19.37V.014C27.387.02 16.584.017 5.782.017v.356zM38.19.37c1.411 0 2.612.381 3.554 1.404l.262-.241C40.978.417 39.67.014 38.189.014V.37zm3.554 1.404c.714.775 1.072 1.67 1.073 2.69h.356c0-1.114-.395-2.093-1.167-2.931l-.262.24zm1.073 2.69c.006 6.725.01 13.45 0 20.174h.356c.01-6.724.006-13.449 0-20.174h-.355zm0 20.174c-.003 2.29-1.874 4.081-4.28 4.087l.001.356c2.586-.006 4.631-1.941 4.636-4.442l-.357-.001zm-4.28 4.087c-3.3.009-6.603.003-9.905.003v.356c3.301 0 6.605.006 9.907-.003l-.002-.356zm-9.905.003H27.836v.356H28.631v-.356zm-.795 0h-.001v.356h.001v-.356zM2.481 19.589v1.523h.356V19.59h-.356zm.178 1.701h38.687v-.356H2.66v.356zm38.864-.16c.017-.163.046-.33.046-.484h-.356c0 .13-.023.245-.044.448l.355.036zm.046-.484c.003-5.317-.001-10.634.004-15.95h-.356c-.005 5.315-.001 10.634-.004 15.95h.356zm.004-15.95c0-.951-.354-1.738-.957-2.285-.6-.545-1.435-.841-2.377-.839v.356c.869-.002 1.613.27 2.138.747.523.475.84 1.163.84 2.02h.356zm-3.334-3.124c-10.826.032-21.65.015-32.475.02v.355c10.825-.004 21.65.013 32.476-.019l-.001-.356zm-32.475.02c-.346 0-.727.007-1.081.101l.09.344c.306-.08.644-.09.99-.09v-.356zm-1.081.101c-.72.19-1.287.554-1.672 1.079-.385.524-.578 1.194-.58 1.982h.356c.002-.73.18-1.321.51-1.771.33-.45.822-.772 1.477-.946l-.091-.344zM2.43 4.754C2.422 9 2.427 13.244 2.43 17.49h.356c-.003-4.246-.008-8.49.001-12.735h-.356zM2.43 17.49c0 .19.028.392.042.588l.355-.026c-.017-.23-.041-.388-.041-.562H2.43zm-.003 5.266V24.143h.356V22.756h-.356zm0 1.387c.002 1.118.287 1.982.896 2.564.607.58 1.505.85 2.668.85v-.356c-1.114 0-1.907-.259-2.422-.751-.514-.492-.784-1.246-.786-2.308l-.356.001zm3.564 3.414H38v-.356H5.991v.356zm32.01 0c.189 0 .396.006.6-.005l-.02-.356c-.19.011-.376.005-.58.005v.356zm.6-.005c1.358-.077 2.588-.92 2.835-2.184l-.35-.068c-.207 1.061-1.262 1.826-2.505 1.896l.02.356zm2.835-2.184c.084-.428.114-.863.13-1.297.015-.44.016-.866.04-1.306l-.355-.02c-.025.442-.026.891-.041 1.313a7.92 7.92 0 0 1-.124 1.242l.35.068zm-.007-2.791H2.607v.356h38.822v-.356zm-38.946.05h-.001l.247.257-.246-.258zm14.054 12.638h10.921v-.356H16.537v.356zm11.096-.214-1.273-6.145-.349.072 1.273 6.145.349-.072zm-1.448-6.287h-8.374v.356h8.374v-.356zm-8.548.142-1.274 6.145.348.072 1.274-6.145-.348-.072z" fill="#050038" mask="url(#a)"/><path d="M26.829 13.42c.628.577 1.166 1.038 1.666 1.535.474.469.472.842.012 1.31-.494.504-1.01.99-1.527 1.47-.439.407-.898.387-1.325-.018-.527-.5-1.038-1.015-1.658-1.624-.449.473-.839.92-1.269 1.326-.61.58-1.316.381-1.51-.413-.56-2.298-1.117-4.597-1.668-6.896-.17-.706.386-1.156 1.206-.977.89.194 1.778.4 2.666.601 1.438.327 2.88.64 4.313.985.936.226 1.095.833.41 1.499-.397.386-.818.747-1.318 1.203h.002zm.094 2.161c-.548-.503-1.048-.94-1.523-1.403-.584-.568-.575-.933-.008-1.5l.744-.746-4.723-1.034 1.064 4.419c.069.04.138.079.206.12.167-.214.313-.448.506-.636.71-.693 1.013-.697 1.729.015.449.446.85.938 1.328 1.472l.676-.708.001.001zM16.662 10.811h-.322c-.815-.015-1.183-.26-1.173-.785.01-.517.396-.768 1.197-.773.26-.001.527-.016.784.023.465.07.783.349.754.804-.027.408-.307.684-.776.709-.218.01-.436.02-.463.02l-.001.002zM18.072 8.47c-.508-.018-1.573-1.048-1.581-1.527-.01-.528.635-.983 1.1-.696.463.286.893.69 1.198 1.13.334.485-.128 1.118-.717 1.095v-.001zM18.867 12.355c.008.488-1.022 1.569-1.527 1.53-.247-.018-.567-.167-.69-.356-.12-.185-.142-.57-.017-.738.299-.402.668-.785 1.086-1.07.504-.343 1.14.04 1.15.634h-.002zM24.53 6.786c-.008.653-1.066 1.722-1.562 1.667-.244-.026-.556-.19-.674-.384-.116-.19-.125-.565 0-.735a4.56 4.56 0 0 1 1.052-1.016c.181-.125.563-.117.78-.02.21.098.327.387.403.486v.002zM21.37 6.284c-.037.246.009.56-.133.72-.197.22-.54.448-.812.437-.23-.009-.573-.318-.64-.553-.112-.391-.062-.83-.042-1.246.022-.468.307-.736.79-.742.465-.007.716.278.788.692.04.223.007.459.007.69l.04.003.002-.001zM23.828 25.024c.005 1.006-.789 1.772-1.834 1.77-1.043-.003-1.831-.774-1.82-1.782.008-.951.807-1.73 1.794-1.747 1.015-.019 1.853.776 1.86 1.759z" fill="#100F36"/><path d="m26.923 15.581-.676.709c-.479-.535-.879-1.027-1.328-1.473-.718-.713-1.02-.708-1.73-.015-.192.19-.338.422-.504.635-.069-.04-.138-.079-.206-.12-.346-1.43-.69-2.862-1.065-4.418l4.723 1.034c-.28.282-.512.515-.744.746-.567.567-.576.932.008 1.5.475.463.975.9 1.523 1.403h-.001zM23.157 25.01c.004.638-.501 1.125-1.163 1.123-.66-.002-1.162-.491-1.156-1.13.007-.603.513-1.096 1.14-1.107.642-.012 1.175.491 1.179 1.115z" fill="#ADB1D9"/></svg>