<svg width="35" height="44" viewBox="0 0 35 44" fill="none" xmlns="http://www.w3.org/2000/svg">
<path d="M10.0332 3.59238C11.6631 3.81573 13.0604 3.37706 14.279 2.33387C14.7301 1.94736 15.2493 1.62371 15.7642 1.30941C16.7998 0.676816 17.8609 0.672804 18.8851 1.32145C19.5504 1.74274 20.1916 2.20415 20.8172 2.67625C21.7066 3.34764 22.7024 3.65925 23.8401 3.61779C24.6657 3.58703 25.4928 3.57633 26.3184 3.59773C27.5554 3.62983 28.3356 4.28115 28.747 5.33504C29.0307 6.06393 29.2704 6.81154 29.4875 7.5605C29.7556 8.48198 30.289 9.20685 31.1259 9.74316C31.7898 10.1698 32.4594 10.5884 33.0963 11.0498C34.2978 11.9191 34.5901 12.7938 34.1744 14.1647C34.0836 14.4629 33.9914 14.7678 33.8481 15.046C32.9672 16.7619 32.9544 18.4698 33.8623 20.179C33.9148 20.278 33.9446 20.3876 33.9829 20.492C34.6993 22.5115 34.39 23.3808 32.5303 24.5804C32.4721 24.6179 32.4154 24.6607 32.353 24.6901C30.4861 25.5782 29.5697 27.0547 29.0307 28.9297C28.7072 30.0532 28.7356 30.9639 29.2151 32.0151C30.2209 34.2192 31.0947 36.4768 32.0224 38.7129C32.4736 39.8016 32.0962 40.2937 30.8535 40.1814C29.4676 40.0557 28.0831 39.9046 26.7028 39.7347C26.2772 39.6825 26.0091 39.7936 25.7382 40.1052C24.8856 41.0882 24.0004 42.0458 23.1252 43.0114C22.2896 43.9342 21.6229 43.8419 21.159 42.7319C20.071 40.1252 18.9985 37.5133 17.8935 34.9133C17.8027 34.7007 17.5048 34.4278 17.3105 34.4332C17.1119 34.4385 16.8324 34.7167 16.7402 34.9334C15.628 37.5547 14.5471 40.1881 13.4505 42.8148C13.0377 43.8031 12.3398 43.9141 11.5979 43.105C10.6857 42.1113 9.80479 41.0895 8.86712 40.1172C8.66852 39.9112 8.27557 39.7414 7.98902 39.7628C6.57754 39.8671 5.17316 40.049 3.76452 40.1894C2.55164 40.3098 2.16437 39.8029 2.61973 38.7062C3.71061 36.0769 4.81142 33.4515 5.87677 30.8128C5.986 30.544 5.94061 30.1815 5.85975 29.89C5.65122 29.1384 5.36325 28.4068 5.14337 27.6578C4.87384 26.7377 4.34046 26.0128 3.50208 25.4765C2.83819 25.0512 2.16579 24.6326 1.53452 24.1685C0.304623 23.2658 -0.048601 22.3764 0.500386 20.9962C1.74731 17.8653 1.83101 17.4774 0.494712 14.2101C-0.0627867 12.8486 0.318809 11.9392 1.55155 11.0445C2.16863 10.5964 2.81975 10.1899 3.4652 9.77793C4.32343 9.23093 4.88944 8.49936 5.14904 7.54846C5.30225 6.98942 5.48241 6.43573 5.67391 5.88605C6.30802 4.07252 7.08539 3.54691 9.11395 3.55092C9.42036 3.55092 9.72819 3.57901 10.0346 3.59372L10.0332 3.59238ZM24.5054 29.9716C24.8799 29.9716 25.3523 29.9569 25.8247 29.9756C26.5439 30.0037 26.9922 29.7121 27.1638 29.0461C27.2192 28.8308 27.327 28.6261 27.3724 28.4081C27.832 26.1827 29.0449 24.4694 31.1883 23.3795C31.4366 23.2537 31.6522 23.0732 31.8905 22.9274C32.5189 22.5422 32.7019 22.0447 32.3899 21.3814C32.2182 21.0176 32.1232 20.6217 31.96 20.2539C31.194 18.526 31.1458 16.8007 31.9246 15.0634C32.0991 14.6755 32.231 14.2703 32.37 13.8691C32.675 12.9944 32.597 12.7697 31.7983 12.2388C31.238 11.867 30.6663 11.5112 30.1045 11.1421C28.981 10.4052 28.1937 9.43422 27.8121 8.18373C27.6235 7.56451 27.4263 6.94662 27.2177 6.33409C26.8901 5.37382 26.6986 5.24409 25.6474 5.24677C25.175 5.2481 24.6998 5.24008 24.2302 5.27753C22.3889 5.42331 20.7859 4.9191 19.3858 3.78497C18.9219 3.40916 18.4425 3.01729 17.9006 2.76987C17.58 2.62276 17.0565 2.62008 16.7388 2.76987C16.177 3.03334 15.6819 3.43858 15.1968 3.82643C13.852 4.90305 12.3185 5.41261 10.5524 5.28154C10.246 5.2588 9.93814 5.25613 9.63031 5.25078C7.76347 5.22269 7.70673 5.21066 7.25846 6.91185C6.72933 8.92198 5.71789 10.5269 3.78863 11.653C1.69766 12.8727 1.7615 12.7216 2.67364 14.9323C3.4042 16.7031 3.44108 18.415 2.71194 20.191C1.76575 22.4968 1.67496 22.2988 3.87658 23.6282C5.56468 24.6473 6.58605 26.0088 7.10667 27.829C7.77907 30.1749 7.55778 30.0518 10.1651 29.9288C12.127 29.8365 13.8137 30.2992 15.3401 31.4936C17.2934 33.0209 17.3573 33.0129 19.3092 31.4936C20.8101 30.326 22.4613 29.7335 24.5083 29.9702L24.5054 29.9716ZM27.1355 31.6273C26.0857 31.6273 25.114 31.7075 24.1621 31.6112C22.0811 31.3986 20.725 32.5488 19.3291 33.6909C20.3646 36.1785 21.3846 38.6273 22.4386 41.1604C23.3224 40.1814 24.1267 39.3067 24.9097 38.4174C25.2445 38.0375 25.6247 37.8958 26.1524 37.964C27.3837 38.1245 28.6207 38.2422 29.9442 38.3879C28.9754 36.0555 28.0405 33.8059 27.1341 31.6273H27.1355ZM7.4911 31.6313C6.58464 33.8193 5.65405 36.0648 4.69084 38.3893C5.98884 38.2462 7.18469 38.1459 8.3692 37.9733C9.01607 37.8797 9.44447 38.0777 9.83884 38.5377C10.5779 39.4004 11.3581 40.2309 12.1993 41.1604C13.2618 38.6006 14.2875 36.129 15.3159 33.6521C14.9287 33.3673 14.5754 33.1426 14.2648 32.8724C13.0973 31.856 11.7298 31.4882 10.1566 31.6193C9.3168 31.6888 8.46566 31.6313 7.49252 31.6313H7.4911Z" fill="black"/>
<path d="M24.5066 29.9731C22.4596 29.7364 20.8084 30.3288 19.3075 31.4964C17.3542 33.0144 17.2918 33.0224 15.3384 31.4964C13.812 30.3021 12.1253 29.8393 10.1634 29.9316C7.5561 30.0547 7.7774 30.179 7.105 27.8319C6.58438 26.013 5.56301 24.6502 3.87491 23.6311C1.67329 22.3017 1.76408 22.4996 2.71027 20.1939C3.43941 18.4165 3.40253 16.7059 2.67196 14.9352C1.75982 12.7244 1.69599 12.8756 3.78696 11.6558C5.71764 10.5297 6.72766 8.92483 7.25679 6.9147C7.70505 5.2135 7.7618 5.22554 9.62864 5.25363C9.93647 5.25764 10.2443 5.26031 10.5507 5.28439C12.3168 5.41545 13.8503 4.9059 15.1951 3.82928C15.6803 3.44143 16.1753 3.03619 16.7371 2.77272C17.0549 2.62293 17.5783 2.6256 17.8989 2.77272C18.4408 3.02014 18.9203 3.412 19.3842 3.78782C20.7843 4.92195 22.3873 5.42615 24.2286 5.28037C24.6981 5.24293 25.1733 5.25095 25.6457 5.24961C26.6969 5.2456 26.8884 5.37533 27.2161 6.33693C27.4246 6.95081 27.6218 7.56736 27.8105 8.18658C28.1921 9.43706 28.9794 10.408 30.1029 11.1449C30.6646 11.5141 31.2377 11.8698 31.7966 12.2416C32.5967 12.7726 32.6733 12.9973 32.3683 13.8719C32.2293 14.2732 32.096 14.6784 31.9229 15.0662C31.1441 16.8035 31.1923 18.5288 31.9584 20.2568C32.1215 20.6245 32.218 21.0204 32.3882 21.3842C32.6989 22.0476 32.5159 22.5451 31.8889 22.9303C31.652 23.076 31.4349 23.2566 31.1867 23.3823C29.0432 24.4736 27.8303 26.1855 27.3707 28.411C27.3253 28.6276 27.2189 28.8323 27.1622 29.0489C26.9905 29.715 26.5423 30.0065 25.823 29.9784C25.3507 29.9597 24.8783 29.9744 24.5038 29.9744L24.5066 29.9731ZM17.3357 28.621C23.7817 28.5889 28.995 23.6525 28.985 17.5886C28.9751 11.5315 23.7009 6.56831 17.2974 6.5897C10.8699 6.6111 5.63678 11.5702 5.64954 17.6274C5.66231 23.6939 10.9337 28.6517 17.3357 28.6196V28.621Z" fill="#ABB2E7"/>
<path d="M27.1351 31.6285C28.0401 33.8072 28.9749 36.0567 29.9452 38.3891C28.6231 38.2447 27.3847 38.1257 26.1534 37.9652C25.6257 37.897 25.2441 38.0387 24.9107 38.4186C24.1263 39.308 23.3234 40.1826 22.4396 41.1616C21.3856 38.6285 20.3656 36.1797 19.3301 33.6921C20.726 32.55 22.0821 31.4011 24.1632 31.6125C25.115 31.7101 26.0881 31.6285 27.1365 31.6285H27.1351Z" fill="white"/>
<path d="M7.49076 31.6327C8.4639 31.6327 9.31646 31.6903 10.1548 31.6207C11.728 31.4896 13.0941 31.8574 14.263 32.8739C14.5737 33.144 14.9283 33.3687 15.3142 33.6536C14.2857 36.1305 13.2601 38.602 12.1976 41.1618C11.3578 40.2337 10.5776 39.4018 9.83708 38.5392C9.44272 38.0791 9.01431 37.8798 8.36744 37.9748C7.18293 38.1473 5.98708 38.2476 4.68909 38.3907C5.6523 36.0676 6.58288 33.8208 7.48935 31.6327H7.49076Z" fill="white"/>
<path d="M17.3357 28.6206C10.9337 28.6527 5.66233 23.6949 5.64956 17.6283C5.63679 11.5712 10.8685 6.61204 17.2974 6.59065C23.7009 6.56925 28.9765 11.5324 28.9851 17.5896C28.995 23.6521 23.7817 28.5885 17.3357 28.6219V28.6206ZM27.1877 17.5962C27.1508 12.4071 22.7235 8.28114 17.2279 8.31324C11.8175 8.34533 7.41852 12.5328 7.44547 17.627C7.47384 22.8055 11.9296 26.9622 17.4038 26.9167C22.8214 26.8712 27.2232 22.6771 27.1863 17.5962H27.1877Z" fill="black"/>
<path d="M27.1879 17.5964C27.2247 22.6773 22.8229 26.8714 17.4054 26.9169C11.9311 26.9623 7.47398 22.8057 7.44702 17.6272C7.42007 12.533 11.8191 8.34418 17.2295 8.31342C22.725 8.28132 27.1524 12.4072 27.1893 17.5964H27.1879ZM13.7965 23.5533C13.9327 23.4984 14.154 23.4222 14.3611 23.3219C15.1797 22.9247 16.0053 22.5395 16.8025 22.1089C17.1784 21.9056 17.4735 21.9176 17.8437 22.1142C18.6651 22.5529 19.4921 22.9875 20.356 23.342C20.6752 23.473 21.2284 23.5212 21.4441 23.35C21.698 23.1494 21.8271 22.6545 21.7888 22.3095C21.6895 21.4054 21.4426 20.5173 21.3192 19.6146C21.2866 19.3779 21.4185 19.0489 21.5958 18.8696C22.2413 18.221 22.9733 17.6459 23.6017 16.9825C23.8528 16.7177 24.1223 16.2229 24.0173 15.9648C23.8939 15.6598 23.4017 15.383 23.0187 15.3001C22.1023 15.1021 21.1504 15.054 20.2255 14.8801C19.9602 14.8306 19.6552 14.6033 19.5205 14.3759C19.0481 13.5815 18.6807 12.7309 18.1941 11.9458C18.0168 11.661 17.6111 11.328 17.3132 11.3306C17.0124 11.3333 16.6138 11.669 16.4365 11.9579C15.94 12.763 15.5527 13.6296 15.0789 14.4481C14.9669 14.6421 14.6973 14.836 14.4689 14.8761C13.5185 15.042 12.5468 15.1075 11.6034 15.2987C11.236 15.3736 10.7438 15.6264 10.636 15.9086C10.531 16.1841 10.7509 16.679 10.9949 16.9398C11.6006 17.5911 12.2829 18.1822 12.9681 18.7613C13.31 19.0502 13.4022 19.3444 13.3114 19.759C13.1156 20.6511 12.9511 21.5485 12.7894 22.4472C12.6815 23.0531 13.1142 23.564 13.7923 23.5506L13.7965 23.5533Z" fill="white"/>
<path d="M13.7965 23.5532C13.1184 23.5666 12.6843 23.0557 12.7936 22.4499C12.9539 21.5525 13.1198 20.6537 13.3156 19.7617C13.4064 19.3484 13.3142 19.0542 12.9723 18.7639C12.2871 18.1848 11.6034 17.5937 10.9991 16.9424C10.7565 16.6803 10.5352 16.1867 10.6402 15.9112C10.748 15.629 11.2402 15.3763 11.6076 15.3014C12.551 15.1088 13.5227 15.0446 14.4732 14.8788C14.7001 14.8386 14.9711 14.6447 15.0831 14.4508C15.5569 13.6323 15.9442 12.7656 16.4407 11.9605C16.618 11.673 17.0166 11.3359 17.3174 11.3333C17.6153 11.3306 18.021 11.6636 18.1983 11.9485C18.6863 12.7335 19.0537 13.5841 19.5247 14.3786C19.6594 14.6046 19.9659 14.8333 20.2297 14.8828C21.1532 15.0566 22.1065 15.1048 23.0229 15.3027C23.4059 15.3856 23.8967 15.6638 24.0216 15.9674C24.1265 16.2255 23.857 16.719 23.6059 16.9852C22.9775 17.6485 22.2455 18.2223 21.6001 18.8723C21.4227 19.0515 21.2908 19.3792 21.3234 19.6172C21.4468 20.52 21.6937 21.408 21.793 22.3121C21.8313 22.6572 21.7022 23.152 21.4483 23.3526C21.2312 23.5238 20.6794 23.477 20.3602 23.3446C19.4977 22.9888 18.6693 22.5542 17.8479 22.1169C17.4777 21.9189 17.1826 21.9082 16.8067 22.1115C16.008 22.5421 15.1824 22.9273 14.3653 23.3245C14.1582 23.4248 13.9369 23.5011 13.8007 23.5559L13.7965 23.5532ZM14.8973 21.0162C14.9299 21.1018 14.9611 21.1887 14.9938 21.2743C16.5499 19.7429 18.1118 19.9489 19.78 21.2823C19.6382 20.4705 19.5672 19.9021 19.4353 19.3471C19.3076 18.8108 19.4396 18.3908 19.8864 18.0391C20.3475 17.6766 20.7943 17.2981 21.2482 16.9263C20.5446 16.6682 19.9886 16.5532 19.4268 16.5184C18.7828 16.477 18.3927 16.1908 18.1444 15.6424C17.9189 15.1449 17.6309 14.6728 17.3117 14.0817C16.9869 14.6955 16.7088 15.1783 16.4733 15.6799C16.2293 16.2001 15.8492 16.4716 15.2349 16.5171C14.6604 16.5599 14.0916 16.6762 13.4262 16.7739C13.9114 17.2433 14.2958 17.6579 14.7299 18.0203C15.1867 18.4028 15.3314 18.8308 15.1952 19.3899C15.0647 19.9248 14.9938 20.4732 14.8973 21.0162Z" fill="black"/>
<path d="M14.8972 21.016C14.9937 20.4731 15.066 19.9261 15.1951 19.3897C15.3313 18.832 15.1866 18.4027 14.7298 18.0202C14.2957 17.6578 13.9113 17.2419 13.4261 16.7738C14.0929 16.6761 14.6603 16.5584 15.2348 16.517C15.8476 16.4715 16.2292 16.2 16.4732 15.6798C16.7073 15.1782 16.9868 14.6954 17.3116 14.0815C17.6308 14.6727 17.9202 15.1448 18.1443 15.6423C18.3926 16.192 18.7827 16.4782 19.4267 16.5183C19.9885 16.5544 20.5431 16.6681 21.2481 16.9262C20.7942 17.298 20.3474 17.6765 19.8863 18.039C19.4395 18.3894 19.3075 18.8106 19.4352 19.3469C19.5671 19.902 19.6381 20.469 19.7799 21.2822C18.1117 19.9488 16.5513 19.7428 14.9937 21.2742C14.961 21.1886 14.9298 21.1016 14.8972 21.016Z" fill="#ABB2E7"/>
</svg>
