<svg width="38" height="36" viewBox="0 0 38 36" fill="none" xmlns="http://www.w3.org/2000/svg">
<path d="M4.02423 12.003C5.37482 4.9388 11.6949 0.0301404 18.9389 0.000136327C26.2197 -0.0298677 32.6106 4.89559 33.9688 12.0042C34.2675 12.0042 34.5802 11.9946 34.8916 12.0054C36.5978 12.063 37.9434 13.3003 37.9725 14.9169C38.0092 16.9764 38.0092 19.0371 37.9725 21.0966C37.9434 22.7108 36.594 23.9446 34.8852 24.0022C34.5916 24.0118 34.2979 24.0034 33.9688 24.0034C33.6119 25.8276 32.9904 27.5378 31.9499 29.0812C28.974 33.4966 24.7159 35.819 19.1845 35.999C18.0655 36.035 17.3947 35.1073 17.8795 34.2491C18.1592 33.7535 18.6339 33.6119 19.2035 33.5963C23.0882 33.4858 26.2982 32.0216 28.7816 29.1893C30.6221 27.0914 31.5828 24.6455 31.636 21.9199C31.6866 19.3203 31.6828 16.7196 31.6398 14.12C31.5499 8.55729 27.2538 3.72304 21.4945 2.64889C14.5619 1.35632 7.98739 5.52568 6.59756 12.123C6.42922 12.9199 6.36086 13.7468 6.352 14.5617C6.32162 17.2021 6.34188 19.8424 6.34061 22.4816C6.34061 23.5965 5.91151 24.007 4.74193 24.0046C4.06727 24.0046 3.38375 24.0478 2.72048 23.9614C1.14458 23.7561 0.0332267 22.5404 0.0167716 21.0258C-0.00601246 19.0263 -0.00474668 17.0256 0.0155058 15.025C0.031961 13.3111 1.37749 12.0426 3.17869 12.003C3.45083 11.997 3.72298 12.003 4.02676 12.003H4.02423Z" fill="#050038"/>
<path d="M28 20V15C28 10.0294 23.9706 6 19 6C14.0294 6 10 10.0294 10 15V20C10 24.9706 14.0294 29 19 29C23.9706 29 28 24.9706 28 20Z" fill="#ABB2E7" stroke="#050038" stroke-width="2"/>
</svg>