<svg width="35" height="39" viewBox="0 0 35 39" fill="none" xmlns="http://www.w3.org/2000/svg">
<g clip-path="url(#clip0_86_272)">
<path d="M29.5602 28.6158C27.9059 30.3512 26.2382 32.1008 24.5718 33.8505C24.3412 34.0923 24.0705 34.3057 23.8921 34.585C22.875 36.1743 21.2547 36.1885 19.6174 36.4975C19.7837 35.3816 19.9366 34.3341 20.1029 33.2892C20.1175 33.1974 20.2182 33.1173 20.2898 33.041C22.5303 30.6499 24.7721 28.2615 27.0041 25.8821C27.8403 26.7769 28.662 27.655 29.5602 28.6158Z" fill="#ABB2E7"/>
<path d="M7.64491 3.59524C7.64976 1.34516 9.24094 0.146406 10.9814 0.191666C14.1965 0.277014 17.4165 0.267962 20.6317 0.195545C22.4231 0.155458 23.8553 1.43826 23.905 3.29781C23.9075 3.37928 23.9305 3.46075 23.9694 3.68705C24.9901 3.68705 26.0327 3.56291 27.0401 3.71162C29.6059 4.08922 31.5429 6.51775 31.5696 9.27087C31.5903 11.4485 31.5781 13.6262 31.5733 15.8039C31.5721 16.6612 31.1315 17.194 30.4567 17.1849C29.7964 17.1759 29.3874 16.6703 29.3862 15.8323C29.3813 13.762 29.3886 11.6916 29.3825 9.62261C29.3752 7.34925 28.0341 5.93196 25.8882 5.92032C25.2438 5.91644 24.5993 5.92032 24.1114 5.92032C23.8128 6.7169 23.6465 7.46563 23.2751 8.07212C22.7641 8.90491 21.9534 9.29027 20.9885 9.28639C17.6702 9.27604 14.3495 9.20492 11.0348 9.31225C9.01034 9.37691 7.64005 7.95444 7.64005 5.85954C6.57684 5.93196 5.49421 5.87764 4.46619 6.10653C3.11897 6.40654 2.20383 7.82642 2.20261 9.3213C2.19776 17.2354 2.19655 25.1482 2.20261 33.0622C2.20383 34.9231 3.61174 36.4283 5.36191 36.4386C8.1134 36.4555 10.8649 36.4412 13.6164 36.4477C14.256 36.449 14.7039 36.8279 14.8046 37.4137C14.8981 37.9516 14.6128 38.4935 14.0982 38.6939C13.915 38.765 13.705 38.7792 13.5071 38.7792C10.7957 38.7844 8.08427 38.7909 5.37405 38.7792C2.42715 38.7663 0.00943213 36.2059 0.00579099 33.0661C-0.00513244 25.152 -0.00391873 17.2393 0.00579099 9.32518C0.00943213 6.17765 2.39438 3.64308 5.36191 3.59653C6.10713 3.58489 6.85235 3.59524 7.64369 3.59524H7.64491ZM15.8096 2.55554C14.1128 2.55554 12.416 2.55037 10.7192 2.55813C10.1124 2.56072 9.87207 2.81159 9.86236 3.4517C9.84901 4.31293 9.85144 5.17417 9.86236 6.03412C9.87086 6.71302 10.1003 6.94837 10.7569 6.94967C14.1091 6.95354 17.4626 6.95354 20.8149 6.94967C21.4703 6.94967 21.6924 6.72595 21.7082 6.02894C21.7276 5.18969 21.7264 4.34914 21.7082 3.51118C21.6937 2.78572 21.4643 2.55942 20.7773 2.55813C19.1206 2.55296 17.4651 2.55684 15.8084 2.55684L15.8096 2.55554Z" fill="#050038"/>
<path d="M35 23.8708C35.0024 25.4187 34.6092 26.4119 33.853 27.2214C30.6428 30.6586 27.4325 34.0945 24.1894 37.4954C23.8423 37.8601 23.2986 38.0812 22.8094 38.208C21.8518 38.4537 20.8699 38.5972 19.8941 38.7614C18.4182 39.0097 17.1851 37.6416 17.4521 36.073C17.6354 34.9958 17.7725 33.907 17.9995 32.8401C18.093 32.4017 18.2871 31.9207 18.5772 31.609C21.8166 28.1136 25.0597 24.6221 28.3561 21.1875C29.5832 19.9086 31.1173 19.7069 32.6854 20.431C34.2281 21.1436 34.9381 22.4962 35.0012 23.8708H35ZM29.5601 28.6141C28.662 27.6533 27.8403 26.7752 27.004 25.8804C24.772 28.2598 22.5303 30.6482 20.2898 33.0392C20.2194 33.1143 20.1174 33.1957 20.1029 33.2875C19.9366 34.3324 19.7837 35.3798 19.6174 36.4958C21.2535 36.1868 22.875 36.1726 23.8921 34.5833C24.0705 34.304 24.3424 34.0906 24.5718 33.8488C26.2382 32.0991 27.9058 30.3495 29.5601 28.6141ZM28.7214 23.9975C29.5917 24.9584 30.3927 25.8429 31.1877 26.7196C31.5761 26.3136 32.024 25.9088 32.4014 25.4394C33.018 24.67 32.9415 23.5656 32.274 22.8803C31.6016 22.191 30.5857 22.1639 29.8648 22.8402C29.4424 23.2359 29.0479 23.6652 28.7214 23.9975Z" fill="#050038"/>
<path d="M14.4834 17.3239C12.6034 17.3239 10.7233 17.3278 8.84328 17.3226C8.02281 17.32 7.56645 16.9295 7.53975 16.2286C7.51183 15.5006 7.98276 15.013 8.80929 15.0105C12.5888 14.9975 16.3695 15.0027 20.149 15.0066C20.6382 15.0066 21.1321 15.132 21.2826 15.6764C21.3797 16.0269 21.3858 16.548 21.2013 16.8066C20.9998 17.0911 20.5362 17.2942 20.1818 17.3032C18.2823 17.3498 16.3817 17.3252 14.4822 17.3252L14.4834 17.3239Z" fill="#050038"/>
<path d="M11.2379 23.9343C10.3907 23.9343 9.54236 23.946 8.69519 23.9305C8.01065 23.9175 7.58707 23.5154 7.54216 22.8804C7.49604 22.2222 7.89778 21.6558 8.58474 21.6377C10.3592 21.5912 12.1373 21.5912 13.9117 21.6338C14.6072 21.6506 14.9919 22.1808 14.964 22.861C14.9373 23.5335 14.5247 23.9201 13.7807 23.9331C12.9335 23.9473 12.0851 23.9369 11.2379 23.9356V23.9343Z" fill="#050038"/>
<path d="M15.8101 2.5562C17.4668 2.5562 19.1223 2.55233 20.7791 2.5575C21.466 2.56008 21.6942 2.78509 21.71 3.51055C21.727 4.3498 21.7282 5.19035 21.71 6.02831C21.6942 6.72661 21.4721 6.94903 20.8167 6.94903C17.4644 6.95291 14.1109 6.95291 10.7586 6.94903C10.102 6.94903 9.87262 6.71239 9.86412 6.03348C9.8532 5.17225 9.85199 4.31101 9.86412 3.45106C9.87383 2.81096 10.1141 2.56008 10.721 2.5575C12.4178 2.54974 14.1146 2.55491 15.8113 2.55491L15.8101 2.5562Z" fill="#ABB2E7"/>
<path d="M28.7214 23.9993C29.0479 23.667 29.4436 23.2377 29.8648 22.842C30.5857 22.1656 31.6016 22.1928 32.274 22.8821C32.9415 23.5674 33.018 24.6718 32.4014 25.4412C32.024 25.9106 31.5761 26.3167 31.1877 26.7214C30.3927 25.8447 29.5917 24.9601 28.7214 23.9993Z" fill="#ABB2E7"/>
</g>
<defs>
<clipPath id="clip0_86_272">
<rect width="34.9999" height="38.5979" fill="white" transform="translate(0 0.192139)"/>
</clipPath>
</defs>
</svg>
