<svg width="44" height="35" viewBox="0 0 44 35" fill="none" xmlns="http://www.w3.org/2000/svg">
<path d="M5.06445 17.0031C6.31541 17.0031 7.56761 16.9978 8.81857 17.0057C9.56989 17.011 9.98187 17.3569 9.9994 17.9679C10.0182 18.612 9.59494 18.9937 8.81732 18.995C6.27283 19.0017 3.72835 19.0017 1.18261 18.995C0.430031 18.9937 0.0180545 18.6438 0.00052362 18.0315C-0.0170073 17.3887 0.406239 17.0097 1.18386 17.0044C2.47739 16.9964 3.76967 17.0017 5.0632 17.0017L5.06445 17.0031Z" fill="#050038"/>
<path d="M6.94509 14.9966C5.99994 14.9966 5.0548 15.0058 4.10965 14.9939C3.3903 14.9846 2.98559 14.5993 3.00039 13.9729C3.01397 13.3756 3.40634 13.0114 4.09731 13.0075C6.02832 12.9969 7.96057 12.9982 9.89159 13.0075C10.6097 13.0114 11.0144 13.4008 10.9996 14.0258C10.986 14.6218 10.5924 14.9833 9.90393 14.9926C8.91806 15.0058 7.93096 14.9952 6.94509 14.9966Z" fill="#050038"/>
<path d="M6.06231 20.0034C7.0074 20.0034 7.9525 19.9942 8.8976 20.0061C9.61198 20.0154 10.0179 20.4076 9.99939 21.0318C9.98212 21.6281 9.58977 21.9886 8.8976 21.9925C6.96669 22.0018 5.03454 22.0031 3.10363 21.9925C2.38925 21.9886 1.9821 21.591 2.0006 20.9655C2.01788 20.3692 2.409 20.014 3.10363 20.0061C4.08944 19.9942 5.07649 20.0034 6.06231 20.0034Z" fill="#050038"/>
<path d="M7.56531 24.0069C8.33643 24.0069 9.10895 23.9897 9.88007 24.0122C10.5894 24.0334 11.0164 24.4412 10.9995 25.0264C10.9841 25.5865 10.5739 25.9772 9.8913 25.9851C8.30131 26.005 6.71133 26.005 5.12134 25.9851C4.41062 25.9758 3.98363 25.5574 4.00048 24.9708C4.01593 24.4094 4.42607 24.032 5.1101 24.0122C5.92757 23.9883 6.74644 24.0069 7.56531 24.0069Z" fill="#050038"/>
<path d="M40.7118 9.68809L41.4644 8.94734C41.5199 8.89312 41.564 8.82861 41.5941 8.75753C41.6242 8.68645 41.6396 8.61022 41.6396 8.53322C41.6396 8.45622 41.6242 8.37998 41.5941 8.30891C41.564 8.23783 41.5199 8.17332 41.4644 8.1191L39.3133 6.00183C39.2582 5.94716 39.1926 5.90377 39.1204 5.87416C39.0482 5.84455 38.9707 5.8293 38.8925 5.8293C38.8143 5.8293 38.7368 5.84455 38.6646 5.87416C38.5924 5.90377 38.5269 5.94716 38.4718 6.00183L37.7192 6.74258C35.2539 4.88206 32.29 3.7711 29.1918 3.54627V2.33307H30.4777C30.6208 2.31831 30.7524 2.24902 30.8443 2.14003C30.9362 2.03104 30.9812 1.89099 30.9696 1.74981V0.583269C30.9812 0.442088 30.9362 0.302035 30.8443 0.193044C30.7524 0.0840521 30.6208 0.0147682 30.4777 0H25.5355C25.3924 0.0147682 25.2608 0.0840521 25.1689 0.193044C25.077 0.302035 25.032 0.442088 25.0436 0.583269V1.74981C25.032 1.89099 25.077 2.03104 25.1689 2.14003C25.2608 2.24902 25.3924 2.31831 25.5355 2.33307H26.8214V3.54627C23.271 3.80439 19.9095 5.22058 17.2689 7.5707C14.6283 9.92082 12.8595 13.0706 12.2423 16.5216C11.6251 19.9725 12.1949 23.5275 13.8614 26.6239C15.528 29.7203 18.1961 32.1811 21.4435 33.617C24.6909 35.0529 28.3321 35.3818 31.7908 34.5516C35.2494 33.7214 38.328 31.7796 40.5393 29.0335C42.7505 26.2874 43.9681 22.8938 43.9994 19.3899C44.0306 15.886 42.8737 12.472 40.7118 9.68809ZM28.0066 32.663C25.3109 32.663 22.6758 31.8763 20.4344 30.4022C18.193 28.9281 16.4461 26.8329 15.4145 24.3816C14.3829 21.9303 14.113 19.233 14.6389 16.6307C15.1648 14.0284 16.4629 11.638 18.369 9.7619C20.2751 7.88575 22.7037 6.60808 25.3476 6.09045C27.9915 5.57283 30.7319 5.83849 33.2224 6.85385C35.7129 7.86922 37.8416 9.58867 39.3392 11.7948C40.8368 14.0009 41.6362 16.5946 41.6362 19.2479C41.6362 21.0096 41.2837 22.754 40.5987 24.3816C39.9138 26.0092 38.9098 27.4881 37.6442 28.7338C36.3786 29.9795 34.876 30.9677 33.2224 31.6419C31.5688 32.316 29.7965 32.663 28.0066 32.663Z" fill="#050038"/>
<path d="M28.0244 9.00003V19L21 26.0589C22.1564 27.225 23.5814 28.0861 25.1486 28.5659C26.7157 29.0457 28.3765 29.1293 29.9835 28.8092C31.5905 28.4891 33.0939 27.7753 34.3605 26.7311C35.6271 25.687 36.6175 24.3447 37.2439 22.8235C37.8703 21.3023 38.1132 19.6493 37.9512 18.0111C37.7892 16.3729 37.2272 14.8002 36.3152 13.4327C35.4031 12.0651 34.1691 10.945 32.7228 10.1717C31.2766 9.39849 29.6627 8.99601 28.0244 9.00003Z" fill="#ABB2E7"/>
</svg>